<svg xmlns="http://www.w3.org/2000/svg" width="24" height="23" viewBox="0 0 24 23">
    <g fill="none" fill-rule="evenodd">
        <g fill="#000">
            <path d="M21.571 5H16.43a.397.397 0 0 0-.304.156.621.621 0 0 0-.125.38v3.928c0 .141.046.28.125.38.08.099.19.156.304.156h5.142a.397.397 0 0 0 .304-.156c.08-.1.125-.239.125-.38V5.536a.621.621 0 0 0-.125-.38.397.397 0 0 0-.304-.156zM21 9h-4V6h4v3z"/>
            <path d="M22.884 0H3.07c-.614 0-1.117.491-1.117 1.09v4.092h-.837C.503 5.182 0 5.672 0 6.272v9.546C0 17.018 1.005 18 2.233 18h19.534C22.995 18 24 17.018 24 15.818V1.091C24 .49 23.497 0 22.884 0zM.837 15.818V6.273A.28.28 0 0 1 1.117 6h.836v9.818c0 .442-.139.854-.375 1.198a1.354 1.354 0 0 1-.74-1.198zm22.326 0c0 .752-.626 1.364-1.396 1.364H2.455c.215-.41.336-.873.336-1.364V1.091A.28.28 0 0 1 3.07.818h19.814a.28.28 0 0 1 .279.273v14.727z"/>
        </g>
        <path stroke="#000" stroke-linecap="round" d="M4.5 3h17M4.5 12h17M4.5 15h17M4.5 6H13M4.5 9H14"/>
        <g transform="translate(6 5.5)">
            <rect width="8" height="16" x=".5" y=".5" fill="#E0EFFC" stroke="#000" rx="2"/>
            <path fill="#000" d="M2.458 4C2.202 4 2 3.778 2 3.496 2 3.222 2.202 3 2.458 3h4.091C6.8 3 7 3.222 7 3.496 7 3.778 6.798 4 6.55 4H2.457zM2.458 6C2.202 6 2 5.778 2 5.496 2 5.222 2.202 5 2.458 5h4.091C6.8 5 7 5.222 7 5.496 7 5.778 6.798 6 6.55 6H2.457zM2.458 8C2.202 8 2 7.778 2 7.496 2 7.222 2.202 7 2.458 7h4.091C6.8 7 7 7.222 7 7.496 7 7.778 6.798 8 6.55 8H2.457zM2.275 10C2.12 10 2 9.778 2 9.496 2 9.222 2.12 9 2.275 9H4.73c.15 0 .27.222.27.496 0 .282-.12.504-.27.504H2.275zM4.502 14a.5.5 0 1 1-.005 1.001A.5.5 0 0 1 4.502 14z"/>
        </g>
    </g>
</svg>